# xmcd
#
# Track frame offsets: 
#        150
#        15450
#        33419
#        49502
#        64648
#        76163
#        88236
#        100180
#        113123
#        125631
#        140388
#        156291
#
# Disc length: 2271 seconds
#
# Revision: 2
# Processed by: cddbd v1.5.1PL2 Copyright (c) Steve Scherf et al.
# Submitted via: ExactAudioCopy v0.95b4
#
DISCID=9308dd0c
DTITLE=David Frizzell - Greatest Hits
DYEAR=2004
DGENRE=Country
TTITLE0=You're the Reason God Made Oklahoma (Featuring Shelly West)
TTITLE1=I'm Gonna Hire a Wino to Decorate Our Home
TTITLE2=I Just Came Here to Dance (Featuring Shelly West)
TTITLE3=Lost My Baby Blues
TTITLE4=Lefty (Featuring Merle Haggard)
TTITLE5=A Texas State of Mind (Featuring Shelly West)
TTITLE6=Husbands and Wives (Featuring Shelly West)
TTITLE7=Another Honky Tonk Night on Broadway (Featuring Shelly West)
TTITLE8=Where Are You Spending Your Nights These Days
TTITLE9=Lone Star Lonesome
TTITLE10=Please Surrender (Featuring Shelly West)
TTITLE11=I Wish That I Could Hurt That Way Again
EXTD=
EXTT0=
EXTT1=
EXTT2=
EXTT3=
EXTT4=
EXTT5=
EXTT6=
EXTT7=
EXTT8=
EXTT9=
EXTT10=
EXTT11=
PLAYORDER=
